<svg xmlns="http://www.w3.org/2000/svg" viewBox="0 0 418.13 174.2"><defs><style>.cls-1{fill:#4d7b55;}.cls-2{fill:#b6995a;}.cls-3{fill:#44744c;}</style></defs><title>Asset 1</title><g id="Layer_2" data-name="Layer 2"><g id="Layer_1-2" data-name="Layer 1"><path class="cls-1" d="M218.1,135.1a31.37,31.37,0,0,1-12-2.3,29.13,29.13,0,0,1-9.73-6.41,30.9,30.9,0,0,1-9-22.06v-.17a31.06,31.06,0,0,1,8.92-22,30,30,0,0,1,9.91-6.59,32.5,32.5,0,0,1,12.54-2.38,36.26,36.26,0,0,1,8.33.89A29,29,0,0,1,234,76.65a27.5,27.5,0,0,1,5.61,4,32.51,32.51,0,0,1,4.46,5l-12.41,9.61a21.56,21.56,0,0,0-5.61-5.1,13.87,13.87,0,0,0-7.39-1.87,13.22,13.22,0,0,0-5.74,1.23,13.57,13.57,0,0,0-4.46,3.36,15.78,15.78,0,0,0-2.94,5,17.6,17.6,0,0,0-1.06,6.13v.17a18.09,18.09,0,0,0,1.06,6.24,15.49,15.49,0,0,0,2.94,5.06,13.57,13.57,0,0,0,4.46,3.36,13.22,13.22,0,0,0,5.74,1.23,16.22,16.22,0,0,0,4.2-.51,12.55,12.55,0,0,0,3.49-1.49,18.92,18.92,0,0,0,3-2.29,37.3,37.3,0,0,0,2.76-2.93l12.41,8.84a44.12,44.12,0,0,1-4.63,5.35,26.54,26.54,0,0,1-5.7,4.25,29.61,29.61,0,0,1-7.14,2.81A35.64,35.64,0,0,1,218.1,135.1Z"/><path class="cls-1" d="M270,74h15.9l25.33,59.93H293.5l-4.33-10.63h-23L262,133.91H244.62Zm14.45,36.55-6.63-16.92-6.71,16.92Z"/><path class="cls-1" d="M314.84,74.4h25.5a35,35,0,0,1,10.2,1.4,22.58,22.58,0,0,1,7.83,4.08,18,18,0,0,1,5,6.59,21.56,21.56,0,0,1,1.74,8.84v.18a21.27,21.27,0,0,1-1.91,9.26,19,19,0,0,1-5.32,6.72,23.11,23.11,0,0,1-8.11,4.08,37.15,37.15,0,0,1-10.25,1.36h-8.16v17H314.84ZM339.15,104a10.47,10.47,0,0,0,6.93-2.1,7,7,0,0,0,2.51-5.68V96a7.07,7.07,0,0,0-2.51-5.86,10.94,10.94,0,0,0-7-2h-7.74V104Z"/><path class="cls-1" d="M369.93,74.4H417.7v14H386.16v9h28.57v13H386.16v9.43h32v14h-48.2Z"/><path class="cls-2" d="M23.57,155h2l0,17.15h8.84V174H23.6Z"/><path class="cls-2" d="M23.49,174.15V174l0-19.13h2.25V155l0,17.05h8.83v2.08h-.11Zm.18-19,0,18.82,10.67,0v-1.67l-8.84,0v-.11l0-17Z"/><path class="cls-2" d="M51.69,154.86h2L61,174H58.81L57,169H48.39l-1.84,5H44.46Zm4.58,12.28-3.6-9.65-3.6,9.66Z"/><path class="cls-2" d="M44.3,174.12l.06-.15,7.25-19.22h2.16l0,.07,7.35,19.27h-2.4l-1.86-5-8.42,0-1.84,5ZM51.76,155l-7.15,18.95h1.87l1.84-5,8.71,0,1.85,5h2L53.63,155Zm-2.84,12.3,3.75-10.06,3.75,10h-7.5Zm3.75-9.47-3.45,9.26h6.9Z"/><path class="cls-2" d="M69.09,154.94h2.2l4.51,15.65,4.41-15.72H82l4.49,15.71,4.46-15.66H93l-5.65,19.18h-1.8l-4.48-15.35L76.63,174.1h-1.8Z"/><path class="cls-2" d="M74.75,174.2l0-.07L69,154.84h2.42l0,.08,4.41,15.3,4.33-15.45H82l0,.08,4.39,15.35,4.38-15.39h2.31l0,.13-5.67,19.25h-2L81.06,159.1,76.7,174.2ZM69.23,155l5.68,19h1.64l4.51-15.64L85.62,174h1.64l5.59-19H91L86.44,171l-4.57-16H80.29l-4.48,16L71.22,155Z"/><path class="cls-2" d="M104.5,154.88h1.93l10,15,0-15h2l0,19h-1.71l-10.22-15.32,0,15.33h-2Z"/><path class="cls-2" d="M104.42,174v-.1l0-19.14h2.09l9.82,14.72,0-14.74h2.23v.1l0,19.14h-1.88l0-.05-10-15,0,15.1Zm.18-19,0,18.82h1.78l0-15.58.19.29,10.19,15.27h1.56l0-18.82h-1.81l0,15.22L106.37,155Z"/><path class="cls-2" d="M146.32,154.82h2.12L154.25,165l5.8-10.2h2.12l0,19h-2l0-15.33-5.86,10.17h-.08l-5.89-10.16,0,15.34h-2Z"/><path class="cls-2" d="M146.25,174v-.11l0-19.13h2.28l0,0,5.72,10,5.74-10.1h2.29v.1l0,19.14h-2.25v-.1l0-15-5.7,9.9h-.2l0-.06-5.69-9.82,0,15h-2.19Zm.18-19,0,18.83h1.77l0-15.63.19.34,5.84,10.08,6-10.43,0,15.62h1.83l0-18.82h-2l-5.86,10.31-.09-.16-5.78-10.13Z"/><path class="cls-2" d="M180.78,154.66h2l7.29,19.13H187.9l-1.85-5h-8.57l-1.84,5h-2.09Zm4.58,12.28-3.6-9.65-3.6,9.66Z"/><path class="cls-2" d="M173.39,173.91l.06-.14,7.25-19.22h2.16l0,.07,7.35,19.27h-2.4l-1.86-5h-8.42l-1.84,5Zm7.46-19.15L173.7,173.7h1.87l1.84-5h.07l8.64,0,1.85,5h2l-7.21-18.92ZM178,167.06,181.76,157l3.75,10h-.15Zm3.75-9.47-3.45,9.26h6.9Z"/><path class="cls-2" d="M201.58,154.73h2l0,19h-2Z"/><path class="cls-2" d="M201.51,173.87v-.1l0-19.14h2.24v.1l0,19.14Zm.17-19,0,18.82h1.83l0-18.83Z"/><path class="cls-2" d="M216.51,154.71h1.93l10,15,0-15h2l0,19h-1.71L218.5,158.4l0,15.34h-2Z"/><path class="cls-2" d="M216.44,173.85v-.11l0-19.13h2.1l9.81,14.73,0-14.74h2.22v.11l0,19.13h-1.87L218.6,158.75l0,15.09Zm.17-19,0,18.83h1.78l0-15.57,10.38,15.56h1.55l0-18.83h-1.8l0,15.23-10.14-15.21Z"/><path class="cls-2" d="M247.21,156.56h-5.33v-1.9l12.73,0v1.9h-5.36l0,17.13h-2Z"/><path class="cls-2" d="M247.14,173.8v-.11l0-17h-5.33v-2.11h.1l12.83,0v2.11h-5.35l0,17.13Zm.18-17.34v.1l0,17h1.83l0-17.13h5.36v-1.7l-12.51,0v1.7Z"/><path class="cls-2" d="M266.08,154.63l11.61,0v1.88l-9.57,0v6.63h8.59V165l-8.59,0v6.8l9.71,0v1.88H266.11Z"/><path class="cls-2" d="M266,173.77v-.11l0-19.13h.1l11.72,0v2.08h-.1l-9.47,0V163l8.59,0v2.06h-8.6v6.59H278v2.08h-.1Zm.18-19,0,18.82,11.54,0v-1.67l-9.7,0,0-7h8.6v-1.64H268V156.4h9.57v-1.67Z"/><path class="cls-2" d="M289.63,154.6h1.93l10,15,0-15h2l0,19h-1.71l-10.23-15.32,0,15.33h-2Z"/><path class="cls-2" d="M289.56,173.73v-.1l0-19.14h2.09l9.82,14.72,0-14.74h2.22v.1l0,19.14h-1.87l-10.06-15.08,0,15.1Zm.18-19,0,18.82h1.77l0-15.57L301.9,173.5h1.55l0-18.82h-1.8l0,15.22-10.13-15.2Z"/><path class="cls-2" d="M322.13,154.44h2l7.29,19.13h-2.17l-1.86-5h-8.57l-1.84,5H314.9Zm4.59,12.28-3.61-9.65-3.6,9.66Z"/><path class="cls-2" d="M314.75,173.69l.05-.14,7.26-19.22h2.15l0,.07,7.34,19.27h-2.4l-1.85-5h-8.42l-1.84,5Zm7.45-19.15-7.15,18.94h1.87l1.84-5h8.71l1.86,5h1.95l-7.21-18.92Zm-2.84,12.29.05-.14,3.7-9.92,3.76,10h-7.51Zm3.75-9.46-3.45,9.26h6.91Z"/><path class="cls-2" d="M342.74,154.51h1.93l10,15,0-15h2l0,19H355l-10.21-15.32,0,15.33h-2Z"/><path class="cls-2" d="M342.67,173.65v-.11l0-19.13h2.09l9.82,14.72,0-14.74h2.22v.1l0,19.14H354.9l-10.06-15.08,0,15.1Zm.18-19,0,18.82h1.77l0-15.58L355,173.42h1.55l0-18.83h-1.8l0,15.22-10.13-15.21Z"/><path class="cls-2" d="M368.65,164.1v-.17c0-5.76,3.57-9.73,8.33-9.74a7.9,7.9,0,0,1,5.8,2.33l-1.25,1.55a6.43,6.43,0,0,0-4.57-2c-3.51,0-6.2,3.22-6.19,7.81V164c0,4.68,2.7,7.86,6.21,7.85a6.43,6.43,0,0,0,4.7-2.13l1.23,1.41a8.16,8.16,0,0,1-6,2.62C372.17,173.77,368.66,169.89,368.65,164.1Z"/><path class="cls-2" d="M376.86,173.87c-4.89,0-8.31-4-8.32-9.77h0v-.17c0-5.7,3.54-9.84,8.44-9.85h0a8,8,0,0,1,5.85,2.36l.07.07-1.38,1.71-.09-.08a6.24,6.24,0,0,0-4.49-1.95h0c-3.54,0-6.09,3.25-6.09,7.71V164a9,9,0,0,0,1.77,5.62,5.52,5.52,0,0,0,4.33,2.13h0a6.36,6.36,0,0,0,4.63-2.1l.08-.08,1.36,1.57-.07.07a8.24,8.24,0,0,1-6.11,2.65Zm.14-19.58h0c-4.78,0-8.24,4.06-8.23,9.64v.17c0,5.63,3.35,9.56,8.11,9.56h0a8,8,0,0,0,5.89-2.52l-1.09-1.26A6.41,6.41,0,0,1,377,172h0a5.72,5.72,0,0,1-4.49-2.2,9.21,9.21,0,0,1-1.82-5.75v-.11c0-4.58,2.64-7.91,6.3-7.91h0a6.46,6.46,0,0,1,4.56,1.92l1.11-1.38A7.75,7.75,0,0,0,377,154.29Z"/><path class="cls-2" d="M394.25,154.43l11.61,0v1.88h-9.57v6.64h8.59v1.84l-8.6,0,0,6.8,9.7,0v1.88H394.28Z"/><path class="cls-2" d="M394.17,173.57v-.11l0-19.13h.1l11.71,0v2.08h-.11l-9.46,0v6.42H405v2.06h-8.59v6.59h9.71v2.08H406Zm.18-19,0,18.82,11.54,0v-1.67l-9.71,0v-7h8.59V163H396.2V156.2h9.57v-1.67Z"/><path class="cls-1" d="M179.43,99.37a19.13,19.13,0,0,0-5.17-6.9,31.6,31.6,0,0,0-8.42-5,86.84,86.84,0,0,0-11.36-3.77c-3.61-1-6.59-1.8-9-2.52a26.65,26.65,0,0,1-5.59-2.28,7.05,7.05,0,0,1-2.83-2.7,7.58,7.58,0,0,1-.78-3.54v-.24a6.38,6.38,0,0,1,2.7-5.22q2.7-2.09,8.1-2.09a28.19,28.19,0,0,1,10.79,2.21,60.79,60.79,0,0,1,11,6.06l9.6-13.91a49.3,49.3,0,0,0-14.21-7.92,50.22,50.22,0,0,0-17-2.76,37.21,37.21,0,0,0-11.86,1.8,27.29,27.29,0,0,0-8.92,4.9c0,.94.07,1.88.07,2.84v.34a63.28,63.28,0,0,1-6,27.11,19,19,0,0,0,5,6,32.44,32.44,0,0,0,8.78,4.74A104.34,104.34,0,0,0,146,100c3.53.88,6.39,1.72,8.6,2.52a27.17,27.17,0,0,1,5.17,2.39,6.92,6.92,0,0,1,2.53,2.58,7.29,7.29,0,0,1,.66,3.18v.24a6.61,6.61,0,0,1-3.18,5.82q-3.18,2.1-8.94,2.1A31.6,31.6,0,0,1,137.58,116a54.53,54.53,0,0,1-11.81-7.44l-10.92,13.08a50.05,50.05,0,0,0,16.79,10.13,55.62,55.62,0,0,0,18.83,3.3,42,42,0,0,0,12.46-1.74,28.49,28.49,0,0,0,9.67-5,22.74,22.74,0,0,0,6.31-8.15,26,26,0,0,0,2.27-11.1v-.24A23.27,23.27,0,0,0,179.43,99.37Z"/><path class="cls-2" d="M0,58.63V59A59.83,59.83,0,0,0,3.4,79c5.27,3.76,9.73,11.11,12.93,20.63.45.46.91.92,1.39,1.37C15.15,77.23,10,55.88,2.83,40.47A59.37,59.37,0,0,0,0,58.63Z"/><path class="cls-2" d="M42.25,94.39A38.31,38.31,0,0,1,32.54,87,197.22,197.22,0,0,1,36.84,113c.22.09.46.17.69.25A108.77,108.77,0,0,1,42.25,94.39Z"/><path class="cls-2" d="M109.13,93.32l1.5-2.18a57,57,0,0,0,10-32.51v-.34C120.65,25.06,94.79,0,60.5,0,43.72,0,28.29,6.12,17.07,17.24A57.07,57.07,0,0,0,4.15,36.77l.43.26c6.38,3.76,12.13,10.58,17,19.65.76-22,17.09-38.37,38.59-38.37,21.84,0,39,17.71,39,40.32V59a42.61,42.61,0,0,1-3.48,17.52L94,80.14,73.64,61.74,60.92,76,81.56,93.58l-4.24,1.88A41.15,41.15,0,0,1,60.5,98.94a39,39,0,0,1-7.64-.75c-1,5.84-1.81,12-2.33,18.38a67.39,67.39,0,0,0,9.63.68,62.18,62.18,0,0,0,33.78-9.74l1.87-1.2,12.57,11.27,12.71-14.13Z"/><path class="cls-3" d="M3.73,38.85c10.61,22,17.48,57.27,17.48,97H36.28C36.28,89.13,22.44,49.88,3.73,38.85Z"/><path class="cls-3" d="M1.27,80c6.11,12.67,10.06,33,10.06,55.84H20C20,109,12,86.37,1.27,80Z"/><path class="cls-3" d="M37.3,136H47.94c0-24.83,3.8-47.18,9.86-62.77C45.87,82.23,37.3,106.92,37.3,136Z"/></g></g></svg>