<svg xmlns="http://www.w3.org/2000/svg" viewBox="0 0 181.18 135.96"><defs><style>.cls-1{fill:#4d7b55;}.cls-2{fill:#b6995a;}.cls-3{fill:#44744c;}</style></defs><title>Asset 2</title><g id="Layer_2" data-name="Layer 2"><g id="Layer_1-2" data-name="Layer 1"><path class="cls-1" d="M179.43,99.37a19.13,19.13,0,0,0-5.17-6.9,31.6,31.6,0,0,0-8.42-5,86.84,86.84,0,0,0-11.36-3.77c-3.61-1-6.59-1.8-9-2.52a26.65,26.65,0,0,1-5.59-2.28,7.05,7.05,0,0,1-2.83-2.7,7.58,7.58,0,0,1-.78-3.54v-.24a6.38,6.38,0,0,1,2.7-5.22q2.7-2.09,8.1-2.09a28.19,28.19,0,0,1,10.79,2.21,60.79,60.79,0,0,1,11,6.06l9.6-13.91a49.3,49.3,0,0,0-14.21-7.92,50.22,50.22,0,0,0-17-2.76,37.21,37.21,0,0,0-11.86,1.8,27.29,27.29,0,0,0-8.92,4.9c0,.94.07,1.88.07,2.84v.34a63.28,63.28,0,0,1-6,27.11,19,19,0,0,0,5,6,32.44,32.44,0,0,0,8.78,4.74A104.34,104.34,0,0,0,146,100c3.53.88,6.39,1.72,8.6,2.52a27.17,27.17,0,0,1,5.17,2.39,6.92,6.92,0,0,1,2.53,2.58,7.29,7.29,0,0,1,.66,3.18v.24a6.61,6.61,0,0,1-3.18,5.82q-3.18,2.1-8.94,2.1A31.6,31.6,0,0,1,137.58,116a54.53,54.53,0,0,1-11.81-7.44l-10.92,13.08a50.05,50.05,0,0,0,16.79,10.13,55.62,55.62,0,0,0,18.83,3.3,42,42,0,0,0,12.46-1.74,28.49,28.49,0,0,0,9.67-5,22.74,22.74,0,0,0,6.31-8.15,26,26,0,0,0,2.27-11.1v-.24A23.27,23.27,0,0,0,179.43,99.37Z"/><path class="cls-2" d="M0,58.63V59A59.83,59.83,0,0,0,3.4,79c5.27,3.76,9.73,11.11,12.93,20.63.45.46.91.92,1.39,1.37C15.15,77.23,10,55.88,2.83,40.47A59.37,59.37,0,0,0,0,58.63Z"/><path class="cls-2" d="M42.25,94.39A38.31,38.31,0,0,1,32.54,87,197.22,197.22,0,0,1,36.84,113c.22.09.46.17.69.25A108.77,108.77,0,0,1,42.25,94.39Z"/><path class="cls-2" d="M109.13,93.32l1.5-2.18a57,57,0,0,0,10-32.51v-.34C120.65,25.06,94.79,0,60.5,0,43.72,0,28.29,6.12,17.07,17.24A57.07,57.07,0,0,0,4.15,36.77l.43.26c6.38,3.76,12.13,10.58,17,19.65.76-22,17.09-38.37,38.59-38.37,21.84,0,39,17.71,39,40.32V59a42.61,42.61,0,0,1-3.48,17.52L94,80.14,73.64,61.74,60.92,76,81.56,93.58l-4.24,1.88A41.15,41.15,0,0,1,60.5,98.94a39,39,0,0,1-7.64-.75c-1,5.84-1.81,12-2.33,18.38a67.39,67.39,0,0,0,9.63.68,62.18,62.18,0,0,0,33.78-9.74l1.87-1.2,12.57,11.27,12.71-14.13Z"/><path class="cls-3" d="M3.73,38.85c10.61,22,17.48,57.27,17.48,97H36.28C36.28,89.13,22.44,49.88,3.73,38.85Z"/><path class="cls-3" d="M1.27,80c6.11,12.67,10.06,33,10.06,55.84H20C20,109,12,86.37,1.27,80Z"/><path class="cls-3" d="M37.3,136H47.94c0-24.83,3.8-47.18,9.86-62.77C45.87,82.23,37.3,106.92,37.3,136Z"/></g></g></svg>